<?xml version="1.0" encoding="utf-8"?>
<!-- Generator: Adobe Illustrator 27.5.0, SVG Export Plug-In . SVG Version: 6.00 Build 0)  -->
<svg version="1.1" id="Layer_1" xmlns="http://www.w3.org/2000/svg" xmlns:xlink="http://www.w3.org/1999/xlink" x="0px" y="0px"
	 viewBox="0 0 1000 1000" style="enable-background:new 0 0 1000 1000;" xml:space="preserve">
<g>
	<path style="fill:#282828;" d="M505.283,839.942c2.28,2.488,4.956,6.96,5.506,14.546c0.625,8.625-3.074,35.19-5.901,53.688
		l22.72-52.578c0.941-2.178,0.909-4.6-0.087-6.478C524.076,842.621,512.939,840.363,505.283,839.942z"/>
	<path style="fill:#282828;" d="M492.135,854.487c0.55-7.585,3.225-12.056,5.505-14.545c-7.865,0.432-19.265,2.79-22.449,9.619
		c-0.805,1.726-0.76,3.969,0.118,6.002l22.723,52.584C495.206,889.651,491.511,863.108,492.135,854.487z"/>
	<path style="fill:#282828;" d="M365.926,893.919l-0.048,0.369l52.7-38.032c1.878-1.355,3.061-3.399,3.165-5.469
		c0.47-9.318-13.303-18.735-17.017-20.746c-0.015-0.008-0.029-0.018-0.045-0.027L365.926,893.919z"/>
	<path style="fill:#282828;" d="M374.301,829.808l-6.39,48.911c5.131-15.601,18.128-48.86,22.623-54.899
		c-2.175-0.552-4.402-0.913-6.533-0.913c-2.781,0-5.007,0.594-6.804,1.815C375.663,825.764,374.581,827.665,374.301,829.808z"/>
	<path style="fill:#282828;" d="M270.779,827.92l-0.155,0.338l61.588-20.751c2.195-0.739,3.929-2.342,4.641-4.288
		c3.107-8.499-6.528-21.124-10.148-24.876c-0.004-0.004-0.007-0.007-0.011-0.011L270.779,827.92z"/>
	<path style="fill:#282828;" d="M304.855,764.733c-1.002,0-1.934,0.136-2.851,0.416c-1.773,0.542-3.369,2.038-4.27,4.003
		l-20.565,44.835c9.514-13.388,31.766-41.32,37.844-45.757C311.745,766.225,308.186,764.733,304.855,764.733z"/>
	<path style="fill:#282828;" d="M213.714,723.818l-0.253,0.209l59.997,7.635c0.306,0.039,0.617,0.059,0.924,0.059
		c1.693,0,3.286-0.602,4.37-1.651c5.556-5.374,3.364-19.331,1.511-24.873c-0.008-0.024-0.013-0.049-0.021-0.073L213.714,723.818z"/>
	<path style="fill:#282828;" d="M264.281,683.953c-1.389,0-2.889,0.58-4.116,1.591l-34.018,28.03
		c14.21-7.571,40.72-20.178,48.247-21.956c-2.516-3.849-5.707-7.037-9.352-7.607C264.794,683.973,264.538,683.953,264.281,683.953z"
		/>
	<path style="fill:#282828;" d="M595.275,830.04c-4.536,2.497-17.472,11.709-17.017,20.746c0.104,2.069,1.288,4.113,3.166,5.468
		l52.7,38.032l-0.048-0.369l-38.755-63.905C595.304,830.022,595.29,830.032,595.275,830.04z"/>
	<path style="fill:#282828;" d="M729.377,828.258l-0.155-0.338l-55.915-49.589c-0.013,0.013-0.022,0.024-0.036,0.038
		c-3.595,3.726-13.23,16.351-10.122,24.85c0.711,1.946,2.446,3.549,4.641,4.288L729.377,828.258z"/>
	<path style="fill:#282828;" d="M684.988,768.231c6.079,4.439,28.329,32.369,37.843,45.756l-20.565-44.836
		c-0.901-1.964-2.497-3.461-4.27-4.002c-0.916-0.28-1.849-0.416-2.849-0.416v-6.428l0,0l0,6.428
		C691.815,764.733,688.258,766.225,684.988,768.231z"/>
	<path style="fill:#282828;" d="M786.539,724.027l-0.253-0.209l-66.528-18.695c-0.008,0.024-0.013,0.049-0.021,0.073
		c-1.887,5.781-4.019,19.525,1.511,24.873c1.085,1.049,2.678,1.651,4.37,1.651c0.307,0,0.618-0.02,0.924-0.059L786.539,724.027z"/>
	<path style="fill:#282828;" d="M773.853,713.574l-34.018-28.03c-1.227-1.011-2.727-1.591-4.115-1.591
		c-0.258,0-0.514,0.02-0.762,0.059c-3.736,0.584-6.893,3.83-9.339,7.609C733.164,693.411,759.651,706.007,773.853,713.574z"/>
	<path style="fill:#282828;" d="M831.748,613.416l-61.05-27.652c6.514-13.199,11.746-27.265,14.774-42.404
		c10.167-50.836-1.64-88.209-11.129-118.239c-4.515-14.291-8.491-26.914-8.629-37.552c0.512-4.366,0.958-8.757,1.226-13.192
		c3.151-28.52,1.218-43.919-3.788-63.946c-2.431-9.723-2.213-14.716-1.911-21.626c0.315-7.194,0.707-16.147-1.856-33.235
		c-3.513-23.418-8.842-30.595-15.012-38.905c-2.739-3.69-5.572-7.505-8.515-13.308c-4.578-9.026-5.486-19.676-6.363-29.976
		c-0.871-10.224-1.771-20.797-6.264-29.927c-3.46-7.031-9.847-13.327-17.224-20.242l-3.988-3.739l-2.8,4.695
		c-2.314,3.88-4.532,6.328-8.151,8.668c-0.901-1.023-1.778-2.024-2.632-3.004c1.177-5.962,2.136-11.58,2.845-19.229l0.169-1.831
		l-1.185-1.408c-6.058-7.195-9.628-13.857-11.24-20.964c-3.94-17.369-17.115-35.424-30.404-34.595
		c-11.26,0.692-18.196,13.251-20.615,37.328c-0.626,6.225-1.502,12.047-2.557,17.491c-0.772,2.369-1.3,4.849-1.584,7.357
		c-7.553,31.715-21.062,48.64-25.125,53.175c-6.771-0.102-28.705,0.429-50.923,10.34c-25.037,11.166-31.754,11.167-46.472,11.168
		c-14.718-0.001-21.436-0.002-46.471-11.168c-22.232-9.917-44.181-10.442-50.936-10.34c-4.165-4.611-18.159-22.07-25.602-55.263
		c-0.086-0.655-0.18-1.308-0.313-1.952c-0.228-1.101-0.499-2.194-0.783-3.279c-1.053-5.452-1.929-11.285-2.556-17.529
		c-2.419-24.076-9.355-36.636-20.616-37.328c-13.328-0.835-26.464,17.226-30.403,34.595c-3.331,14.685-14.67,25.293-25.636,35.552
		c-7.614,7.123-14.805,13.85-18.571,21.504c-4.493,9.13-5.393,19.702-6.264,29.927c-0.877,10.299-1.784,20.949-6.363,29.976
		c-2.943,5.802-5.776,9.618-8.516,13.308c-6.17,8.31-11.499,15.487-15.011,38.905c-2.563,17.088-2.172,26.041-1.857,33.235
		c0.302,6.91,0.521,11.902-1.91,21.626c-5.447,21.786-7.262,38.082-2.844,71.764c1.529,11.663-3.048,26.151-8.348,42.926
		c-9.488,30.03-21.296,67.404-11.129,118.239c2.952,14.759,7.993,28.501,14.279,41.411l-63.242,28.645
		c-1.599,0.724-2.615,2.33-2.584,4.084c0.031,1.755,1.102,3.325,2.725,3.993l66.47,27.359c0.279,1.515,0.573,3.036,0.902,4.569
		c1.964,9.145,4.209,17.955,6.687,26.475l-58.331,48.894c-1.346,1.128-1.892,2.947-1.391,4.629c0.502,1.682,1.955,2.906,3.698,3.112
		l83.373,9.897c3.811,6.894,7.816,13.502,12.005,19.815l-35.487,79.122c-0.718,1.602-0.416,3.477,0.77,4.772
		c0.848,0.927,2.033,1.429,3.246,1.429c0.482,0,0.968-0.079,1.439-0.243l80.914-28.023c7.896,6.604,16.038,12.619,24.362,18.066
		l-9.333,76.448c-0.213,1.742,0.631,3.444,2.146,4.33c0.689,0.403,1.456,0.603,2.221,0.603c0.918,0,1.834-0.287,2.605-0.854
		l67.618-49.669c16.043,5.063,32.106,8.479,47.779,10.413l27.84,62.965c0.705,1.594,2.283,2.621,4.024,2.621
		c0.012,0,0.025,0,0.038,0c1.755-0.015,3.333-1.072,4.016-2.689l26.575-62.953c15.026-1.881,30.407-5.115,45.782-9.866
		l66.949,49.177c0.772,0.567,1.687,0.854,2.605,0.854c0.766,0,1.533-0.2,2.221-0.603c1.516-0.886,2.359-2.588,2.146-4.33
		l-9.172-75.13c8.81-5.648,17.428-11.911,25.77-18.842l79.344,27.48c0.47,0.163,0.957,0.243,1.438,0.243
		c1.214,0,2.398-0.503,3.246-1.429c1.186-1.294,1.488-3.17,0.769-4.772l-34.605-77.155c4.727-6.992,9.231-14.343,13.488-22.062
		l81.008-9.617c1.743-0.206,3.196-1.43,3.697-3.112c0.502-1.682-0.044-3.501-1.39-4.629l-56.554-47.405
		c2.653-8.979,5.043-18.286,7.121-27.964c0.401-1.865,0.753-3.714,1.079-5.552l64.083-26.376c1.623-0.668,2.694-2.238,2.724-3.993
		C834.362,615.746,833.346,614.14,831.748,613.416z M236.736,427.772c1.705-5.395,3.335-10.564,4.735-15.532
		c0.361,2.656,0.704,5.313,0.99,7.973c0.847,7.651,1.381,15.319,1.474,23.039c0.05,1.932-0.007,3.861-0.006,5.803
		c-0.05,1.936-0.176,3.869-0.261,5.816l-0.38,5.85l-0.321,2.922l-0.262,2.954c3.637-7.156,5.963-14.959,7.346-22.904
		c0.694-3.975,1.143-7.993,1.432-12.016c0.074-2.008,0.227-4.03,0.228-6.037c0.026-2.008,0.098-4.031-0.019-6.029
		c-0.222-8.025-0.978-15.987-2.244-23.812c-1.24-7.819-2.84-15.528-5.036-23.095c-2.928-26.852-1.142-40.924,3.661-60.14
		c2.741-10.965,2.474-17.072,2.165-24.145c-0.314-7.17-0.669-15.298,1.768-31.545c3.187-21.243,7.682-27.298,13.374-34.964
		c2.82-3.799,6.018-8.105,9.298-14.573c5.353-10.554,6.334-22.071,7.283-33.21c0.839-9.846,1.631-19.145,5.391-26.788
		c3.056-6.211,9.677-12.405,16.687-18.963c11.38-10.646,24.278-22.713,28.206-40.032c3.17-13.977,13.625-27.768,20.933-27.768
		c0.117,0,0.233,0.004,0.348,0.011c5.95,0.366,10.586,11.366,12.4,29.424c0.666,6.633,1.605,12.817,2.729,18.61
		c0.604,3.933,0.87,7.734,0.77,11.68c-0.072,1.975-0.217,4.006-0.397,6.086c-0.246,2.098-0.409,4.261-0.613,6.499
		c-0.387,4.463-0.387,9.285,0.609,13.889c0.986,4.606,2.908,8.9,5.588,12.554c-0.585-4.459-0.826-8.762-0.555-12.914
		c0.239-3.806,0.989-7.476,1.865-11.264c6.508,17.852,14.328,29.233,19.026,35.035c-0.637,0.369-1.261,0.757-1.864,1.171
		c-2.5,1.685-4.445,3.493-6.516,5.07c-2.056,1.6-4.245,3.047-6.544,4.39c-2.288,1.363-4.689,2.568-7.108,3.766
		c2.647-0.501,5.311-1.02,7.95-1.734c2.643-0.691,5.292-1.54,7.876-2.597c2.591-1.038,5.057-2.281,7.331-3.011
		c1.836-0.617,3.697-0.971,5.642-1.199l0.649-0.037c0.149-0.009,9.383-0.482,22.077,1.63c-1.008,0.476-1.952,1.026-2.921,1.533
		c-1.01,0.612-2.054,1.22-3.027,1.833c-3.922,2.469-7.717,4.772-11.98,6.292c-4.237,1.55-8.778,2.349-13.384,2.79
		c4.605,0.291,9.306,0.235,13.969-0.669c4.667-0.858,9.186-2.696,13.413-4.503c4.238-1.852,8.281-3.176,12.411-3.387
		c3.932-0.239,7.924,0.413,11.891,1.396c2.148,0.782,4.311,1.646,6.473,2.61c25.721,11.472,33.475,11.93,50.056,11.931
		c16.581-0.001,24.334-0.459,50.056-11.931c2.164-0.965,4.331-1.831,6.484-2.613c3.964-0.981,7.952-1.632,11.879-1.393
		c4.131,0.211,8.173,1.534,12.411,3.387c4.228,1.807,8.746,3.645,13.413,4.503c4.663,0.904,9.364,0.959,13.969,0.669
		c-4.606-0.441-9.147-1.24-13.384-2.79c-4.263-1.52-8.058-3.823-11.98-6.292c-0.973-0.613-2.017-1.221-3.027-1.833
		c-0.963-0.504-1.902-1.05-2.903-1.524c12.67-2.103,21.91-1.645,22.059-1.639l0.649,0.037c1.945,0.228,3.806,0.583,5.642,1.199
		c2.274,0.73,4.739,1.973,7.331,3.011c2.584,1.056,5.234,1.906,7.876,2.597c2.639,0.714,5.303,1.233,7.95,1.734
		c-2.42-1.198-4.82-2.404-7.108-3.766c-2.299-1.343-4.488-2.79-6.544-4.39c-2.07-1.576-4.016-3.385-6.516-5.07
		c-0.603-0.413-1.227-0.802-1.864-1.171c4.624-5.71,12.269-16.831,18.715-34.199c0.795,3.498,1.489,6.885,1.772,10.399
		c0.374,4.123,0.182,8.392-0.151,12.943c2.428-3.747,4.301-8.006,5.184-12.583c0.925-4.566,0.9-9.331,0.529-13.786
		c-0.194-2.233-0.36-4.399-0.579-6.508c-0.159-2.093-0.284-4.141-0.342-6.133c-0.041-1.995,0.095-3.953,0.293-5.895
		c0.129-0.968,0.182-1.945,0.362-2.911c0.204-0.948,0.362-1.905,0.507-2.871c1.125-5.799,2.065-11.991,2.733-18.632
		c1.815-18.059,6.451-29.059,12.401-29.424c7.351-0.44,18.061,13.56,21.28,27.757c1.796,7.919,5.694,15.537,11.901,23.241
		c-0.36,3.507-0.785,6.581-1.266,9.52c-3.036-3.765-5.832-7.505-8.545-11.597c-8.112-12.238-16.546-34.283-20.442-34.329
		c-6.3-0.074-7.517,18.517-6.233,35.2c1.283,16.683,1.668,42.533-0.449,53.717c-2.117,11.183-8.167,19.617-7.617,22.367
		c0.55,2.75,15.4,11,22.367,18.333c6.967,7.333,9.668,14.879,18.15,20.533c15.95,10.633,26.767,33.55,33,37.583
		c-8.433-2.017-14.117-14.117-19.25-18.333c-5.133-4.217-10.313-9.946-18.838-16.683s-15.081-25.061-54.862-33.688
		c14.162,6.6,31.35,16.087,36.987,23.1c-9.625-5.913-33.55-9.625-33.55-9.625s35.063,13.887,45.787,25.3
		c-9.167-3.438-30.067-10.129-39.875-12.054c14.575,7.058,29.242,17.05,38.317,20.808c9.075,3.758,18.517,12.467,18.517,12.467
		s-19.617-7.425-29.242-9.625c13.2,6.233,19.708,10.633,24.108,14.85c4.4,4.217,29.883,20.075,38.5,31.35
		c-11-2.292-25.392-13.75-37.308-17.967c-11.917-4.217-26.583-5.592-42.717-3.392c17.692,2.2,44.825,8.8,60.775,26.95
		s36.025,19.25,43.725,59.95c-10.45-21.45-14.025-29.15-34.65-43.175s-10.45-17.6-59.4-29.975
		c16.775,7.333,26.492,16.408,26.492,16.408s-8.617-3.667-20.533-4.4c15.308,7.608,21.358,10.175,26.079,14.483
		c-6.371-1.65-15.996-1.008-15.996-1.008l15.996,9.075c0,0-21.013-4.554-45.295,4.913c0.564-1.414,1.118-3.805,0.835-7.526
		c-0.231-3.037-2.195-5.523-3.613-6.947c5.388-0.622,9.92-1.467,12.736-2.999c-4.982,0.628-9.225,0.706-13.403,0.585
		c2.698-4.54,3.731-15.818-6.397-25.61c2.466,6.251,5.37,18.697-0.416,25.294c-8.461-0.464-18.075-0.977-33.959,1.105
		c-28.325,3.712-43.862,12.65-50.875,27.363c8.662-9.488,28.462-14.025,28.462-14.025s-16.775,11.963-24.337,26.125
		c-7.563,14.163-12.719,34.719-13.475,50.463c-2.338-5.981-2.338-19.8-2.338-19.8s-7.081,19.869-7.356,29.769
		c-2.131-2.337-5.431-13.406-3.919-21.45c-6.462,6.944-6.05,22.206-6.05,22.206s-3.437-3.162-3.162-9.762s6.875-17.875,5.362-34.65
		c-0.771,12.987-10.559,23.807-11.826,25.156c-1.267-1.349-11.054-12.169-11.826-25.156c-1.513,16.775,5.087,28.05,5.362,34.65
		c0.275,6.6-3.162,9.762-3.162,9.762s0.412-15.262-6.05-22.206c1.513,8.044-1.788,19.112-3.919,21.45
		c-0.275-9.9-7.356-29.769-7.356-29.769s0,13.819-2.337,19.8c-0.756-15.744-5.913-36.3-13.475-50.463
		c-7.563-14.162-24.337-26.125-24.337-26.125s19.8,4.538,28.462,14.025c-7.013-14.713-22.55-23.65-50.875-27.363
		s-36.712,0.825-54.175-1.375c9.35,5.087,37.537,2.613,53.625,9.488c16.087,6.875,29.012,13.612,41.25,34.1
		c12.237,20.488,11.137,38.913,11.412,49.088c0.275,10.175,5.225,28.325,28.6,19.112c-11.275,11.55-30.25,11.092-32.725-7.379
		c-2.475-18.471,3.025-31.258-15.675-54.221s-37.813-25.438-37.813-25.438s21.862,10.587,34.237,30.25s11.138,41.663,2.75,53.9
		c-8.387,12.238-33.962,16.775-50.188,4.675c-16.225-12.1-15.675-36.575-47.3-47.575c-18.804-6.541-33.525,0.336-42.37,6.986
		c0.432-4.511,8.132-14.274,8.132-14.274s-11.344,6.875-14.575,13.406c1.169-6.462,8.319-18.631,8.319-18.631
		s-9.694,7.906-13.269,16.775c1.306-7.837,4.95-17.325,10.794-21.519c-9.556,5.844-20.556,21.038-19.869,36.781
		c0.688,15.744,15.201,5.111,23.031-0.344c9.969-6.944,19.731-12.444,34.994-8.319s21.175,9.9,25.987,17.462
		c-10.313-8.25-19.662-10.863-26.95-12.1s-13.337-1.788-30.525,8.663c-17.188,10.45-23.558,12.879-28.233,9.671
		c-4.675-3.208-5.958-10.908-3.85-21.175c2.108-10.267,7.058-29.333,24.75-41.342c-22.733,11.642-33.124,32.824-33.733,48.4
		c-0.733,18.746,6.142,32.496,3.392,40.333c4.538-6.737,7.013-10.862,10.725-8.662c3.712,2.2,9.488,13.612,17.325,26.95
		s26.537,27.638,26.537,27.638c-17.462-23.238-26.537-42.488-24.337-66.962c7.15,21.862,17.738,35.2,37.125,42.212
		c19.388,7.012,39.462-2.2,39.462-2.2s-24.475,6.6-39.6-4.125s-23.65-24.2-24.2-38.087c8.25,9.075,16.775,21.45,36.163,23.788
		c19.387,2.337,32.45-8.25,32.45-8.25s6.738,4.538,11,5.913c-4.606,6.119-15.262,13.681-27.981,14.3
		c10.45,2.544,27.156,0.756,37.744-8.044c-7.7,11.55-12.237,16.087-18.425,19.663c17.119-1.925,34.994-17.05,34.994-17.05
		s-9.762,11.688-17.6,15.813c-7.837,4.125-10.244,11.206-22,20.556c-11.756,9.35-16.087,13.269-20.075,15.125
		c18.219-6.737,21.725-8.869,27.431-13.681c5.706-4.813,13.269-15.262,16.912-17.944c3.644-2.681,17.738-10.587,32.313-16.775
		c14.575-6.188,31.075-6.738,31.075-6.738s-30.8,13.475-43.725,22.825c-12.925,9.35-27.362,27.775-37.262,29.975
		c18.15-1.1,48.813-25.712,48.813-25.712s-10.038,15.4-18.288,19.525c15.813-5.363,22.962-13.613,29.563-20.075
		s18.541-15.615,27.087-15.95c13.875-0.544,17.53,4.063,26.127,4.562v0.022c0.047-0.002,0.09-0.008,0.137-0.011
		c0.047,0.002,0.089,0.008,0.137,0.011v-0.022c8.596-0.498,12.252-5.106,26.127-4.562c8.546,0.335,20.487,9.487,27.088,15.95
		c6.6,6.462,13.75,14.712,29.563,20.075c-8.25-4.125-18.288-19.525-18.288-19.525s30.663,24.612,48.813,25.712
		c-9.9-2.2-24.338-20.625-37.263-29.975s-43.725-22.825-43.725-22.825s16.5,0.55,31.075,6.738
		c14.575,6.188,28.669,14.094,32.313,16.775c3.644,2.681,11.206,13.131,16.912,17.944c5.706,4.813,9.213,6.944,27.431,13.681
		c-3.987-1.856-8.319-5.775-20.075-15.125c-11.756-9.35-14.163-16.431-22-20.556c-7.838-4.125-17.6-15.813-17.6-15.813
		s17.875,15.125,34.994,17.05c-6.188-3.575-10.725-8.113-18.425-19.663c10.588,8.8,27.294,10.587,37.744,8.044
		c-12.719-0.619-23.375-8.181-27.981-14.3c4.262-1.375,11-5.913,11-5.913s13.063,10.587,32.45,8.25
		c0.45-0.054,0.888-0.119,1.326-0.184c0,0-0.004,0.004-0.004,0.004c3.89,0.424,9.52,7.255,5.607,17.301
		c-14.961,6.582-34.566,1.304-34.566,1.304s17.067,7.821,34.925,3.546c1.149,0.888,3.013,2.891,2.886,6.491
		c-0.086,2.424-1.06,4.861-2.073,6.775c-1.728,0.668-3.48,1.217-5.259,1.613c-13.2,2.933-26.445-0.55-39.783-6.967
		c20.167,15.447,31.9,17.05,41.067,14.483c0.516-0.145,1.047-0.302,1.588-0.471c0.088,5.69,0.651,14.956,3.177,20.729
		c-0.688-8.412,1.624-17.389,4.644-24.075c7.616-4.308,16.138-12.685,23.224-30.65c-5.387,8.081-11.946,15.257-19.248,20.29
		c0.512-4.322-0.423-8.573-2.3-10.896c17.254-7.312,27.018-20.328,33.74-40.881c2.2,24.475-6.875,43.725-24.337,66.962
		c0,0,18.7-14.3,26.537-27.638s13.612-24.75,17.325-26.95c3.712-2.2,6.188,1.925,10.725,8.662
		c-2.75-7.837,4.125-21.587,3.392-40.333c-0.609-15.576-11-36.758-33.733-48.4c17.692,12.008,22.642,31.075,24.75,41.342
		s0.825,17.967-3.85,21.175c-4.675,3.208-11.046,0.779-28.233-9.671c-17.188-10.45-23.237-9.9-30.525-8.663
		c-7.288,1.237-16.638,3.85-26.95,12.1c4.813-7.563,10.725-13.337,25.987-17.462s25.025,1.375,34.994,8.319
		c7.831,5.454,22.344,16.087,23.031,0.344c0.688-15.744-10.312-30.938-19.869-36.781c5.844,4.194,9.487,13.681,10.794,21.519
		c-3.575-8.869-13.269-16.775-13.269-16.775s7.15,12.169,8.319,18.631c-3.231-6.531-14.575-13.406-14.575-13.406
		s7.7,9.763,8.132,14.274c-4.617-3.472-10.839-7.001-18.404-8.655c2.769-9.172-6.085-15.132-6.853-19.827
		c2.197-9.808-1.922-18.31-8.453-20.671c4.538,2.521,5.431,14.46,3.506,18.104c-1.221,2.31-1.142,4.01-0.921,4.947
		c-7.291-2.354-13.035-3.787-17.794-4.466c-0.338-7.054-4.223-17.828-12.164-22.321c22.249-4.32,36.479-5.852,60.511,5.478
		c28.875,13.612,46.017,37.033,41.8,78.833c8.617-21.817,11.825-53.808,9.9-72.508c-1.925-18.7-5.5-22.825-6.783-41.892
		c-0.386-5.736-2.95-12.557-6.456-19.235c-2.894-5.515,1.506-7.348-11.328-26.965c0,6.233,0,20.533,1.65,24.567
		c-6.508-10.038-10.908-18.563-2.658-38.637c9.213,10.588,14.3,18.7,16.5,25.713c1.513-11-2.475-22.55-7.425-28.188
		c-4.95-5.638-11.963-15.4-17.188-31.488c-3.713,15.95,3.456,37.154-4.263,39.325c-4.4,1.238-14.987-6.05-22.963-16.775
		c-7.975-10.725-4.818-55.55-4.818-55.55s-6.045,17.462-6.182,34.238c-5.225-13.75-0.412-26.813-1.375-37.4
		c-0.962-10.587-8.937-25.712-8.937-25.712s3.025,12.925,1.65,27.087c-1.375,14.163-2.612,29.975-1.1,36.3
		c-4.538-5.637-7.425-20.167-6.188-30.846c-5.225,6.783-4.675,20.533-4.675,20.533s-6.05-5.317-3.85-20.533
		c2.2-15.217,3.713-46.979,9.625-47.529c2.731-0.254,8.836,3.984,15.048,9.766c-0.501,2.446-1.033,5.05-1.596,7.96l-1.603,8.271
		l7.703-3.411c1.902-0.842,3.649-1.634,5.268-2.406c3.301,4.069,5.964,8.114,7.218,11.445c4.4,11.688,2.75,29.563,0.962,38.913
		c-1.787,9.35-4.4,21.175-2.75,25.575c1.65,4.4,9.625,6.05,12.788,11.275c-1.65-6.6-6.188-9.762-7.563-13.2s3.85-15.95,7.425-27.225
		c3.575-11.275,11-28.05-3.025-44.137c-2.315-2.656-4.476-5.106-6.527-7.426c2.581-1.796,4.762-3.793,6.766-6.32
		c5.111,4.944,9.353,9.557,11.626,14.175c3.761,7.643,4.553,16.942,5.39,26.788c0.948,11.139,1.93,22.656,7.283,33.21
		c3.281,6.468,6.477,10.774,9.298,14.573c5.692,7.666,10.188,13.721,13.374,34.964c2.437,16.247,2.082,24.375,1.768,31.545
		c-0.309,7.073-0.576,13.18,2.165,24.145c4.805,19.219,6.59,33.293,3.66,60.154c-0.849,3.818-1.493,7.675-2.216,11.529
		c-0.647,3.884-1.2,7.79-1.741,11.707c-1.094,7.832-1.729,15.772-1.932,23.747c-0.177,7.974,0.181,16.004,1.392,23.909
		c0.306,1.974,0.72,3.936,1.075,5.893c0.406,1.952,0.888,3.889,1.327,5.822c0.542,1.918,1.161,3.813,1.734,5.704
		c0.646,1.877,1.343,3.733,2.068,5.568l-0.044-3.005l-0.115-2.959l-0.092-5.876c-0.012-3.897,0.033-7.752,0.163-11.587
		c0.151-1.925,0.12-3.827,0.263-5.74c0.138-1.913,0.242-3.812,0.406-5.719c0.227-3.809,0.691-7.604,1.053-11.408
		c0.168-1.597,0.355-3.194,0.546-4.792c1.169,3.957,2.456,8.038,3.79,12.26c9.185,29.069,20.614,65.246,10.891,113.862
		c-8.188,40.935-33.797,74.402-56.392,103.929c-12.203,15.947-23.437,30.638-30.761,44.865c-0.018-2.642,0.043-5.572,0.234-8.94
		c7.238-25.396,21.795-42.189,30.182-52.916c11.825-15.125,33.55-43.175,41.25-66.55s13.75-48.4,4.125-84.165
		c0,0,1.237,19.952-0.55,35.49c-0.138-8.8-7.7-25.163-7.7-25.163s5.362,31.762,2.475,41.8c-0.138-6.875-8.525-25.163-8.525-25.163
		s5.912,30.525,3.575,40.425c-0.138-7.975-9.488-24.887-9.488-24.887s5.5,25.989,3.3,39.6c-0.137-7.563-3.162-20.35-10.45-29.15
		c3.85,6.188,6.188,30.8,3.712,42.075c0.138-5.5-4.813-22.55-11.138-29.013c3.713,10.588,7.425,31.213,2.063,46.475
		c1.1-8.938-2.475-25.438-10.038-34.237c3.3,9.212,4.4,27.087,0.963,45.787c0.688-6.875-1.513-29.425-9.075-36.85
		c4.033,11.733,3.117,31.717-1.467,48.95c0.55-4.217-0.183-24.567-8.067-38.5c4.033,22.55-2.567,48.217-2.567,48.217
		s-1.833-22.367-5.317-30.433c1.1,7.883-5.5,38.867-5.5,38.867s-7.517-14.667-2.75-28.05c4.767-13.383,3.483-23.467,3.483-23.467
		s-2.933,13.2-7.883,20.9c-4.95,7.7-9.167,18.7-11.733,38.867c-0.254,1.995-0.87,4.656-1.737,7.808
		c-0.091-0.355-0.188-0.719-0.281-1.078c-0.337-11.779,1.185-31.991,1.652-38.997c0.55-8.25-1.283-8.021-1.696-17.646
		c-0.413-9.625-2.75-14.163-4.95-25.575c7.15,7.287,9.9,17.737,11.138,28.462c2.337-8.25,2.063-22.412-4.813-33.55
		c10.587,5.362,12.787,18.288,12.787,18.288l1.45-25.85c0,0,1.163,5.362,3.913,8.525c3.3-8.663,25.025-22,34.65-38.362
		c6.54-11.118,7.471-30.892,8.112-37.858c0.642-6.967,3.942-10.633,8.433-11.917c4.492-1.283,10.739-4.72,7.608-8.067
		c-6.646-7.104-15.217,4.492-18.379,11.779c-3.162,7.288-3.162,16.042-6.737,28.554c-3.575,12.513-10.083,22.092-24.383,32.267
		c-19.361,13.776-37.767,16.133-43.267,13.017c-7.545-4.276-20.763-26.4-29.563-36.438c3.162,3.987,5.912,14.025,13.2,26.263
		c7.288,12.237,11.688,25.3,14.438,38.088c2.75,12.787,8.25,16.362,8.662,26.002c0.375,8.77,2.988,9.771,2.904,26.172
		c-1.617-5.084-3.385-10.132-5.292-14.826c-2.308-5.682-4.295-10.537-6.057-14.846c-5.496-13.433-8.813-21.541-12.953-32.859
		c-6.673-18.24-22.014-34.677-46.898-50.251l-0.01,0.016c-7.811-5.335-19.637-14.672-27.945-20.807
		c-8.938-6.6-23.787-15.95-33.963-16.913c18.288,9.075,19.388,13.613,18.15,15.813c-1.237,2.2-14.162,1.65-14.162,1.65
		s16.637,5.363,25.025,9.763s17.72,8.662,17.72,8.662s-10.295-0.412-22.395-5.912s-29.838-7.975-38.225-5.913
		c18.563,2.475,36.712,17.188,40.837,20.075c4.125,2.888,17.737,5.729,17.737,5.729s-10.45-4.904-18.012-12.604
		c13.723,3.438,25.178,4.401,30.678,7.976c0.093,0.06,0.185,0.112,0.277,0.17c22.932,14.421,36.979,29.33,42.921,45.57
		c4.198,11.474,7.539,19.64,13.073,33.169c1.759,4.302,3.744,9.151,6.049,14.826c9.253,22.776,15.457,55.478,15.518,55.806
		l3.663,19.488l4.924-19.208c1.417-5.529,4.095-12.363,7.079-17.049c-3.644,24.167-2.928,34.824-2.288,44.362
		c0.445,6.622,0.828,12.343-0.401,21.946c-0.055,0.434-0.113,0.843-0.169,1.268c-0.504-0.703-1.021-1.39-1.557-2.049
		c-1.457-1.753-3.038-3.329-4.639-4.81c-1.618-1.469-3.3-2.805-4.96-4.109l-5.005-3.769c-1.646-1.264-3.192-2.579-4.514-4.248
		c0.476,2.098,1.619,4.019,2.747,5.839c1.122,1.853,2.437,3.514,3.65,5.214c1.232,1.685,2.4,3.381,3.506,5.056
		c1.127,1.657,2.137,3.346,3.015,5.036c1.807,3.365,2.871,6.812,3.343,10.178c0.229,1.693,0.329,3.382,0.322,5.108
		c-0.059,0.865-0.045,1.733-0.111,2.621c-0.021,0.885-0.201,1.773-0.221,2.694l0.008,0.002c-1.437,4.809-3.091,8.549-5.056,11.584
		c2.085-8.956-0.723-16.98-6.344-16.086c-8.211,1.305-5.438,20.934-11.699,30.134l-0.37,0.543
		c-22.615,33.168-51.448,25.676-71.651,13.555c-16.005-9.604-65.709-46.113-75.697-72.581l-4.116-10.909l-4.116,10.909
		c-9.988,26.468-59.692,62.977-75.698,72.581c-20.205,12.123-49.038,19.61-71.651-13.555l-0.37-0.543
		c-6.26-9.2-3.488-28.828-11.699-30.134c-5.621-0.894-8.429,7.129-6.345,16.085c-2.045-3.16-3.755-7.072-5.233-12.169
		c-0.096-1.623-0.192-3.191-0.222-4.727c0.013-1.732,0.13-3.423,0.371-5.116c0.498-3.364,1.568-6.805,3.383-10.163
		c1.755-3.384,4.102-6.683,6.559-10.052c1.199-1.713,2.488-3.399,3.613-5.251c1.124-1.823,2.266-3.749,2.732-5.852
		c-1.313,1.675-2.858,2.994-4.5,4.261c-1.66,1.238-3.286,2.521-4.968,3.806c-1.667,1.297-3.368,2.613-4.991,4.077
		c-1.603,1.479-3.185,3.052-4.644,4.803c-0.54,0.661-1.061,1.351-1.569,2.056c-0.057-0.431-0.115-0.846-0.171-1.285
		c-1.228-9.604-0.844-15.323-0.4-21.945c0.64-9.535,1.355-20.19-2.284-44.341c2.978,4.686,5.653,11.506,7.074,17.026l4.924,19.207
		l3.663-19.486c0.062-0.329,6.267-33.031,15.519-55.807c2.314-5.695,4.303-10.56,6.068-14.875
		c5.526-13.507,8.861-21.659,13.054-33.12c5.943-16.243,19.994-31.154,42.932-45.577c0.089-0.056,0.177-0.105,0.266-0.163
		c5.5-3.575,16.955-4.538,30.678-7.976c-7.563,7.7-18.013,12.604-18.013,12.604s13.613-2.842,17.738-5.729
		c4.125-2.887,22.275-17.6,40.837-20.075c-8.388-2.063-26.125,0.413-38.225,5.913s-22.396,5.912-22.396,5.912
		s9.333-4.262,17.721-8.662c8.387-4.4,25.025-9.763,25.025-9.763s-12.925,0.55-14.163-1.65c-1.237-2.2-0.137-6.737,18.15-15.813
		c-10.175,0.962-25.025,10.313-33.962,16.913c-8.308,6.135-20.134,15.472-27.945,20.807l-0.01-0.016
		c-24.884,15.574-40.225,32.011-46.898,50.251c-4.136,11.304-7.448,19.399-12.935,32.812c-1.768,4.321-3.76,9.19-6.077,14.893
		c-2.012,4.952-3.87,10.297-5.557,15.664c-0.178-17.2,2.515-18.094,2.896-27.009c0.413-9.639,5.913-13.214,8.663-26.002
		c2.75-12.788,7.15-25.85,14.438-38.088s10.038-22.275,13.2-26.263c-8.8,10.038-22.017,32.162-29.563,36.438
		c-5.5,3.117-23.905,0.76-43.267-13.017c-14.3-10.175-20.808-19.754-24.383-32.267c-3.575-12.513-3.575-21.267-6.737-28.554
		s-11.733-18.883-18.379-11.779c-3.131,3.347,3.117,6.783,7.608,8.067c4.492,1.283,7.792,4.95,8.433,11.917
		c0.642,6.967,1.572,26.74,8.112,37.858c9.625,16.362,31.35,29.7,34.65,38.362c2.75-3.163,3.913-8.525,3.913-8.525l1.45,25.85
		c0,0,2.2-12.925,12.787-18.288c-6.875,11.138-7.15,25.3-4.813,33.55c1.238-10.725,3.988-21.175,11.138-28.462
		c-2.2,11.412-4.538,15.95-4.95,25.575c-0.412,9.625-2.246,9.396-1.696,17.646c0.484,7.253,2.097,28.658,1.609,40.208
		c-0.033,0.129-0.064,0.252-0.097,0.38c-0.942-3.378-1.611-6.219-1.879-8.322c-2.567-20.167-6.783-31.167-11.733-38.867
		c-4.95-7.7-7.883-20.9-7.883-20.9s-1.283,10.083,3.483,23.467c4.767,13.383-2.75,28.05-2.75,28.05s-6.6-30.983-5.5-38.867
		c-3.483,8.067-5.317,30.433-5.317,30.433s-6.6-25.667-2.567-48.217c-7.883,13.933-8.617,34.283-8.067,38.5
		c-4.583-17.233-5.5-37.217-1.467-48.95c-7.563,7.425-9.762,29.975-9.075,36.85c-3.438-18.7-2.338-36.575,0.962-45.787
		c-7.563,8.8-11.138,25.3-10.038,34.237c-5.362-15.263-1.65-35.888,2.063-46.475c-6.325,6.463-11.275,23.513-11.138,29.013
		c-2.475-11.275-0.137-35.888,3.713-42.075c-7.288,8.8-10.313,21.588-10.45,29.15c-2.2-13.611,3.3-39.6,3.3-39.6
		s-9.35,16.912-9.487,24.887c-2.337-9.9,3.575-40.425,3.575-40.425s-8.387,18.288-8.525,25.163c-2.887-10.038,2.475-41.8,2.475-41.8
		s-7.563,16.362-7.7,25.163c-1.787-15.538-0.55-35.49-0.55-35.49c-9.625,35.765-3.575,60.79,4.125,84.165s29.425,51.425,41.25,66.55
		c8.516,10.893,23.401,28.03,30.518,54.087c0.153,3.099,0.195,5.824,0.169,8.294c-7.316-14.391-18.678-29.247-31.031-45.391
		c-22.595-29.527-48.204-62.994-56.391-103.929C216.122,493.018,227.552,456.841,236.736,427.772z M643.178,347.125
		c-4.972,0.127-8.861,1.332-12.905,3.239c-9.717,4.583-19.854,14.011-31.167,34.366c16.317-15.666,23.31-22.633,32.83-26.483
		c3.596-1.454,8.077-2.802,13.164-3.771c3.341,2.155,8.628,6.117,9.188,9.912c0.399,2.707-0.728,5.946-1.996,8.573
		c-27.027,11.678-27.336,34.302-42.735,45.786c-16.225,12.1-41.8,7.563-50.188-4.675c-8.388-12.237-9.625-34.237,2.75-53.9
		s34.237-30.25,34.237-30.25s-19.112,2.475-37.813,25.438s-13.2,35.75-15.675,54.221c-2.475,18.471-21.45,18.929-32.725,7.379
		c23.375,9.212,28.325-8.938,28.6-19.112c0.275-10.175-0.825-28.6,11.412-49.088c12.237-20.487,25.162-27.225,41.25-34.1
		c9.161-3.915,22.242-4.798,33.538-5.772c4.246,3.669,8.004,13.157-1.363,19.247c0.55-0.106,1.084-0.21,1.624-0.315
		C632.249,326.985,642.589,332.425,643.178,347.125z M669.246,353.42c5.349,3.586,5.535,10.216,2.629,15.117
		c-1.789,0.001-3.635,0.121-5.531,0.369c-0.218-3.653-1.794-9.975-9.085-15.828C661.106,352.909,665.125,353,669.246,353.42z
		 M666.393,428.057c9.697-5.011,15.62-12.987,21.401-19.348c-0.471,11.889-6.803,23.47-18.101,33.287
		C670.811,436.482,669.366,430.993,666.393,428.057z M655.62,422.46c-14.025,7.975-24.338-1.513-23.65-5.225s10.038-14.3,18.15-17.6
		c8.112-3.3,19.662-5.096,22.825-1.86C676.774,401.692,669.644,414.485,655.62,422.46z M347.068,422.46
		c-14.025-7.975-21.154-20.768-17.325-24.685c3.163-3.236,14.712-1.44,22.825,1.86c8.113,3.3,17.463,13.888,18.15,17.6
		S361.093,430.435,347.068,422.46z M469.354,763.067c9.545-7.543,22.765-9.429,32.058-9.438c9.622,0.009,23.466,2.012,33.069,10.243
		h0.042c10.949,9.568,22.138,17.96,30.623,23.883c-22.141-11.355-40.325-27.57-63.803-27.57c-23.105,0-41.084,15.705-62.753,27.026
		C447.217,781.155,458.448,772.677,469.354,763.067z M501.48,815.552l-0.132-4.4c-10.109-0.01-35.416-1.244-52.04-12.46
		c-5.352-3.611-10.691-5.563-15.911-6.429c22.245-1.071,42.488,10.342,52.684,10.189c-10.45-4.045-15.217-9.888-14.3-16.671
		c0.917-6.783,15.033-13.383,29.563-13.383c14.53,0,28.647,6.6,29.563,13.383c0.917,6.783-3.85,12.626-14.3,16.671
		c10.214,0.153,30.512-11.302,52.805-10.184c-5.216,0.868-10.55,2.817-15.896,6.424c-16.625,11.216-41.932,12.45-52.04,12.46
		L501.48,815.552z M541.088,786.064c2.616-0.392,4.995,1.012,5.313,3.137c0.319,2.125-1.544,4.165-4.16,4.557
		c-2.616,0.392-4.995-1.012-5.313-3.137C536.609,788.497,538.472,786.456,541.088,786.064z M238.839,598.589l-25.084,11.108
		c8.748-1.787,19.866-3.768,28.699-5.015c2.47,4.047,5.03,8.01,7.648,11.899l-52.084,0.085l-0.224,0.099l47.814,20.153
		c0.657,0.277,1.364,0.423,2.046,0.423c0.73,0,1.396-0.16,1.978-0.475c3.413-1.849,5.256-7.126,6.125-12.101
		c1.683,2.375,3.38,4.72,5.083,7.041c-1.741,5.139-4.861,9.961-10.431,11.665c-2.033,0.621-4.346,0.473-6.51-0.418l-62.739-25.823
		l54.36-24.622C236.6,594.621,237.705,596.616,238.839,598.589z M256.197,679.859c2.211-1.854,4.952-2.823,7.701-2.756
		c15.828,0.438,22.318,24.913,22.406,25.256c0.029,0.112,0.064,0.229,0.101,0.338c0.085,0.249,8.308,24.953-5.432,33.745
		c-2.085,1.333-4.715,1.888-7.412,1.573l-75.983-9.02L256.197,679.859z M291.679,765.736c1.265-2.822,3.447-5.046,6.142-6.262
		c2.232-1.008,4.51-1.438,6.773-1.438c13.331,0,26.166,14.949,26.316,15.125c0.075,0.089,0.157,0.178,0.238,0.261
		c0.195,0.198,19.457,19.942,10.386,34.733c-1.389,2.267-3.668,4.038-6.418,4.991l-76.6,26.529L291.679,765.736z M367.507,828.335
		c0.374-3.069,1.801-5.839,4.016-7.798c3.543-3.132,7.882-4.263,12.299-4.263c11.343,0,23.194,7.45,23.358,7.555
		c0.101,0.065,0.204,0.125,0.309,0.18c0.245,0.13,24.496,13.225,20.186,30.107c-0.658,2.575-2.311,4.943-4.656,6.666l-65.332,47.99
		L367.507,828.335z M468.715,857.775c-1.268-2.867-1.464-6.019-0.552-8.875c4.789-15.003,28.303-15.629,32.149-15.629
		c0.319,0,0.503,0.004,0.53,0.005c0.12,0.003,0.24,0.002,0.36-0.003c0.275-0.019,28.126-1.204,33.134,15.706
		c0.765,2.585,0.554,5.504-0.593,8.221l-31.885,75.531L468.715,857.775z M576.982,860.783c-2.345-1.723-3.998-4.09-4.656-6.666
		c-4.273-16.734,19.72-29.857,20.184-30.107c0.108-0.057,0.213-0.118,0.315-0.184c0.164-0.104,11.877-7.506,23.175-7.57l0,6.65
		c-2.131,0-4.36,0.361-6.534,0.913c4.495,6.037,17.493,39.298,22.623,54.899l-6.39-48.911c-0.28-2.143-1.363-4.044-2.896-5.086
		c-1.797-1.221-4.023-1.815-6.803-1.815v-6.65c4.471-0.025,8.877,1.097,12.476,4.279c2.216,1.96,3.643,4.73,4.018,7.799l9.82,80.438
		L576.982,860.783z M664.883,813.146c-2.749-0.953-5.028-2.725-6.417-4.991c-6.88-11.218,2.535-25.278,7.571-31.506
		c5.382-3.342,9.559-7.112,12.892-12.342c6.434-4.573,15.121-8.502,23.25-4.834c2.696,1.217,4.878,3.441,6.143,6.263l33.162,73.938
		L664.883,813.146z M726.441,738.014c-2.695,0.317-5.327-0.238-7.413-1.573c-13.723-8.781-5.536-33.435-5.432-33.743
		c0.038-0.11,0.072-0.226,0.101-0.338c0.063-0.248,6.548-24.818,22.406-25.257c2.746-0.065,5.49,0.902,7.702,2.756l58.617,49.135
		L726.441,738.014z M756.102,643.054c-2.166,0.893-4.478,1.04-6.51,0.418c-4.695-1.436-7.649-5.087-9.504-9.276
		c1.596-2.155,3.189-4.33,4.773-6.53c1.024,3.988,2.756,7.71,5.508,9.201c0.582,0.315,1.247,0.475,1.978,0.475
		c0.682,0,1.39-0.146,2.046-0.423l47.814-20.153l-0.224-0.099l-49.4-0.081c2.541-3.776,5.03-7.62,7.434-11.545
		c8.371,1.248,18.278,3.033,26.228,4.656l-22.949-10.163c1.139-1.963,2.253-3.946,3.342-5.948l52.203,23.645L756.102,643.054z"/>
	<path style="fill:#282828;" d="M304.03,330.747c28.875-13.613,43.587-8.663,75.075-2.613c-28.737-16.5-56.788-10.404-56.788-10.404
		l15.996-9.075c0,0-9.625-0.642-15.996,1.008c4.721-4.308,10.771-6.875,26.079-14.483c-11.917,0.733-20.533,4.4-20.533,4.4
		s9.717-9.075,26.492-16.408c-48.95,12.375-38.775,15.95-59.4,29.975s-24.2,21.725-34.65,43.175c7.7-40.7,27.775-41.8,43.725-59.95
		c15.95-18.15,43.083-24.75,60.775-26.95c-16.133-2.2-30.8-0.825-42.717,3.392c-11.917,4.217-26.308,15.675-37.308,17.967
		c8.617-11.275,34.1-27.133,38.5-31.35c4.4-4.217,10.908-8.617,24.108-14.85c-9.625,2.2-29.242,9.625-29.242,9.625
		s9.442-8.708,18.517-12.467c9.075-3.758,23.742-13.75,38.317-20.808c-9.808,1.925-30.708,8.617-39.875,12.054
		c10.725-11.412,45.788-25.3,45.788-25.3s-23.925,3.712-33.55,9.625c5.637-7.013,22.825-16.5,36.987-23.1
		c-39.782,8.626-46.337,26.95-54.862,33.688c-8.525,6.738-13.704,12.467-18.838,16.683c-5.133,4.217-10.817,16.317-19.25,18.333
		c6.233-4.033,17.05-26.95,33-37.583c8.482-5.655,11.183-13.2,18.15-20.533c6.967-7.333,21.817-15.583,22.367-18.333
		c0.55-2.75-5.5-11.183-7.617-22.367c-2.117-11.183-1.733-37.033-0.449-53.717c1.283-16.683,0.067-35.274-6.233-35.2
		c-3.896,0.046-12.329,22.092-20.442,34.329c-8.113,12.237-16.913,21.313-30.938,37.4s-6.6,32.863-3.025,44.137
		c3.575,11.275,8.8,23.788,7.425,27.225s-5.913,6.6-7.563,13.2c3.163-5.225,11.138-6.875,12.788-11.275
		c1.65-4.4-0.963-16.225-2.75-25.575c-1.788-9.35-3.438-27.225,0.962-38.913s26.125-32.175,32.038-31.625
		c5.912,0.55,7.425,32.313,9.625,47.529c2.2,15.217-3.85,20.533-3.85,20.533s0.55-13.75-4.675-20.533
		c1.238,10.679-1.65,25.208-6.188,30.846c1.513-6.325,0.275-22.137-1.1-36.3c-1.375-14.162,1.65-27.087,1.65-27.087
		s-7.975,15.125-8.938,25.712c-0.962,10.588,3.85,23.65-1.375,37.4c-0.138-16.775-6.182-34.238-6.182-34.238
		s3.157,44.825-4.818,55.55c-7.975,10.725-18.563,18.012-22.962,16.775c-7.718-2.171-0.55-23.375-4.263-39.325
		c-5.225,16.087-12.237,25.85-17.188,31.488c-4.95,5.637-8.938,17.188-7.425,28.188c2.2-7.013,7.288-15.125,16.5-25.713
		c8.25,20.075,3.85,28.6-2.658,38.637c1.65-4.033,1.65-18.333,1.65-24.567c-12.833,19.617-8.433,21.45-11.328,26.965
		c-3.505,6.678-6.069,13.499-6.456,19.235c-1.283,19.067-4.858,23.192-6.783,41.892c-1.925,18.7,1.283,50.692,9.9,72.508
		C258.014,367.781,275.155,344.36,304.03,330.747z"/>
	<path style="fill:#282828;" d="M501.48,229.914c0.917-8.617,28.967-26.583,50.05-33.367c-12.467,0.367-23.833,5.133-31.533,8.8
		c-7.7,3.667-18.517,2.75-18.517,2.75s-10.817,0.917-18.517-2.75c-7.7-3.667-19.067-8.433-31.533-8.8
		C472.514,203.331,500.564,221.297,501.48,229.914z"/>
	<path style="fill:#282828;" d="M341.637,256.704c11.275,1.856,26.538-4.263,38.362-0.481c11.825,3.781,23.237,3.369,41.594,2.544
		c18.356-0.825,23.925,0.137,31.212,6.264c-17.05-7.555-29.288-0.489-41.663,1.505c18.975,0.962,21.862-4.675,37.95,1.237
		c16.087,5.913,18.287,5.913,33.275,6.188c14.987,0.275,16.913,14.575,5.225,19.525c-11.688,4.95-28.188-1.237-40.838-7.563
		c-12.65-6.325-31.487-10.175-44.688-6.05c35.2-2.337,55.55,23.788,72.875,21.313c17.325-2.475,26.538,11.137,26.538,17.188
		c0-6.05,9.212-19.663,26.537-17.188c17.325,2.475,37.675-23.65,72.875-21.313c-13.2-4.125-32.037-0.275-44.688,6.05
		c-12.65,6.325-29.15,12.513-40.837,7.563c-11.688-4.95-9.763-19.25,5.225-19.525s17.188-0.275,33.275-6.188
		c16.087-5.913,18.975-0.275,37.95-1.237c-12.375-1.994-24.613-9.059-41.663-1.505c7.288-6.127,12.856-7.089,31.213-6.264
		c18.356,0.825,29.769,1.237,41.594-2.544c11.825-3.781,27.088,2.337,38.362,0.481c-10.175-4.331-20.556-4.881-29.287-7.356
		c-8.731-2.475-19.731-11-28.806-18.15c-9.075-7.15-13.544-14.323-41.594-1.283c15.606-2.429,23.719-3.873,37.331,5.271
		c13.612,9.144,13.681,17.119,0.344,17.462c-13.337,0.344-17.6-2.475-23.444-4.95c-5.844-2.475-16.981-6.738-30.8,2.406
		c-13.819,9.144-24.613,13.269-24.613,13.269c8.113,0.55,29.563-9.831,36.231-12.994c-10.862,11.481-24.269,25.644-55.206,13.337
		c-30.938,12.306-44.344-1.856-55.206-13.337c6.669,3.163,28.119,13.544,36.231,12.994c0,0-10.794-4.125-24.612-13.269
		c-13.819-9.144-24.956-4.881-30.8-2.406c-5.844,2.475-10.106,5.294-23.444,4.95c-13.337-0.344-13.269-8.319,0.344-17.462
		c13.612-9.144,21.725-7.7,37.331-5.271c-28.05-13.04-32.519-5.867-41.594,1.283c-9.075,7.15-20.075,15.675-28.806,18.15
		C362.193,251.822,351.811,252.372,341.637,256.704z"/>
	<path style="fill:#282828;" d="M510.28,339.364c-3.964-0.598-8.8-4.767-8.8-4.767s-4.836,4.168-8.8,4.767
		c-9.717,1.467-10.817-3.392-18.608-2.383c3.483,0.55,8.25,5.867,13.567,7.242c5.317,1.375,11.917,0.55,13.842,0
		c1.925,0.55,8.525,1.375,13.842,0c5.317-1.375,10.083-6.692,13.567-7.242C521.097,335.972,519.997,340.831,510.28,339.364z"/>
	<path style="fill:#282828;" d="M346.93,476.864c9.167,2.567,20.9,0.964,41.067-14.483c-13.338,6.417-26.583,9.9-39.783,6.967
		c-13.2-2.933-25.117-13.75-33.917-26.95C324.531,468.345,337.764,474.297,346.93,476.864z"/>
	<path style="fill:#282828;" d="M412.197,410.816c-9.992-2.427-20.625-17.461-23.283-21.036c-2.658-3.575-16.683-20.258-36.3-22.367
		c14.667,6.233,21.083,14.483,26.4,22c5.317,7.517,13.567,21.45,23.467,25.85s26.033,2.75,34.833-5.683
		c8.8-8.433,6.783-27.867,3.667-35.017c-3.117-7.15-17.783-22.733-17.783-22.733s11.55,16.5,14.483,27.317
		c-5.133-9.35-14.3-15.492-14.3-15.492s9.35,10.725,12.925,24.475c-4.125-7.975-11.367-12.833-11.367-12.833
		s7.883,10.854,9.35,22.477c-3.117-7.26-10.542-13.044-10.542-13.044c4.308,7.892,5.042,12.842,5.317,18.25
		c-2.017-7.058-9.808-12.375-9.808-12.375c4.308,7.517,4.125,14.758,4.125,14.758l-12.925-13.567c0,0,5.225,13.475,6.875,15.4
		c-10.175-8.708-30.617-27.775-30.617-27.775S403.305,405.269,412.197,410.816z"/>
	<path style="fill:#282828;" d="M328.716,354.031c16.803-2.75,32.514,0.367,42.034,4.217c9.52,3.85,16.513,10.817,32.83,26.483
		c-11.313-20.355-21.45-29.783-31.167-34.366C362.697,345.781,353.897,345.231,328.716,354.031z"/>
	<path style="fill:#282828;" d="M402.755,499.185c-7.287,5.225-16.637,16.637-19.112,21.725c-2.475,5.087-8.388,5.5-14.025,19.112
		c6.875-7.287,12.237-11.275,21.313-16.775c9.075-5.5,18.425-13.612,20.762-16.5c-10.037,5.637-17.875,8.663-17.875,8.663
		s6.05-7.425,20.35-14.713c14.3-7.287,20.212-8.25,30.25-16.225c10.038-7.975,17.462-11.275,26.538-11.688
		c9.075-0.413,20.9-6.738,20.9-6.738c-14.85,3.025-21.587,3.712-22,1.65s5.087-7.7,13.063-10.587
		c-10.313,1.1-21.038,7.288-24.887,9.35c-3.85,2.063-11,6.737-15.95,10.725C437.13,481.172,410.043,493.96,402.755,499.185z"/>
	<path style="fill:#282828;" d="M268.409,434.147c0,0-4.253,9.281-3.016,15.744c-2.612-3.231-3.85-4.606-2.75-10.863
		c1.1-6.256,0.825-11.846,0.138-19.02c-0.138,6.714-4.538,18.676-6.462,23.764c-1.925,5.087-0.963,8.25,0,10.45
		c0.962,2.2,2.612,4.537,6.462,3.712c3.85-0.825,9.35,0,12.375,12.512c3.025,12.513,6.05,34.513,16.775,49.225
		c10.725,14.712,36.712,26.813,47.163,26.675c10.45-0.138,19.662-25.438,38.362-42.213c-8.112,3.438-30.25,30.25-38.913,30.8
		c11-8.938,23.65-27.5,23.65-27.5s-21.313,20.35-34.375,24.062c9.694-6.531,25.369-25.369,25.369-25.369
		s-18.906,18.012-37.538,19.869c11.894-4.813,21.519-14.3,27.913-22.619c-8.387,6.462-20.35,15.675-31.487,15.813
		c6.119-5.088,21.725-19.594,21.725-19.594c-8.663,5.225-21.794,11.756-25.163,16.087c2.406-7.769,15.675-21.244,15.675-21.244
		s-14.644,9.212-21.106,18.288c1.375-8.938,10.587-19.8,16.156-23.031c-9.35,2.819-20.075,16.225-21.312,19.869
		c0.825-8.938,7.356-21.794,13.475-27.637c-7.975,3.644-17.6,17.256-18.7,21.862c0.412-10.656,6.188-27.087,11.825-32.45
		c-7.631,4.331-14.987,16.363-15.469,21.106c-0.894-11.481,2.337-23.856,7.563-29.425c-6.462,4.744-11.688,13.888-12.1,17.325
		c-2.612-7.631,2.475-23.581,5.294-28.6c-5.775,5.5-9.487,15.95-9.556,18.425c-1.419-6.744-0.963-20.831,2.131-25.438
		c-4.263,3.644-6.6,10.656-6.669,14.094c-3.025-6.325-3.644-15.95-0.206-21.794c-3.712,2.269-5.844,10.45-5.569,14.712
		C267.73,444.872,268.409,434.147,268.409,434.147z"/>
	<path style="fill:#282828;" d="M481.13,482.364c3.497-1.026,6.851-1.71,10.241-2.189c3.379-0.477,6.761-0.735,10.109-0.745
		c3.348,0.004,6.732,0.263,10.111,0.739c3.391,0.477,6.746,1.164,10.239,2.195c-2.58-2.616-5.959-4.36-9.435-5.547
		c-3.501-1.169-7.188-1.776-10.915-1.785c-3.727,0.003-7.416,0.61-10.917,1.78C487.088,477.996,483.708,479.743,481.13,482.364z"/>
	<path style="fill:#282828;" d="M491.855,609.872c1.75-6.446-0.078-12.029-1.476-15.013c-6.637,10.338-22.862,20.651-43.487,10.888
		c8.8,10.725,19.25,18.15,28.737,20.35c9.488,2.2,15.675,0.825,19.25,4.263c3.575,3.438,2.475,33.825,6.6,33.825
		s3.025-30.387,6.6-33.825s9.762-2.063,19.25-4.263c9.488-2.2,19.938-9.625,28.738-20.35c-20.625,9.763-36.85-0.55-43.487-10.888
		c-1.398,2.984-3.225,8.567-1.476,15.013c2.612,9.625,12.237,11.963,12.237,11.963c-19.387,3.713-21.862-17.463-21.862-17.463
		s-2.475,21.175-21.862,17.463C479.618,621.835,489.243,619.497,491.855,609.872z"/>
	<path style="fill:#282828;" d="M480.58,645.439c6.655,8.041,11.825,27.5,15.675,32.083c-1.742-3.575-2.816-25.524-5.683-37.125
		c-2.017-8.158-11.458-7.792-18.792-9.992c-7.333-2.2-16.592-8.525-23.925-15.767C461.055,636.822,472.88,636.135,480.58,645.439z"
		/>
	<path style="fill:#282828;" d="M556.068,614.639c-7.333,7.242-16.592,13.567-23.925,15.767c-7.333,2.2-16.775,1.833-18.792,9.992
		c-2.867,11.601-3.942,33.55-5.683,37.125c3.85-4.583,9.02-24.042,15.675-32.083C531.043,636.135,542.868,636.822,556.068,614.639z"
		/>
	<path style="fill:#282828;" d="M501.48,522.697c-25.3,0-58.3,10.45-72.875,30.8c-14.575,20.35,3.85,45.65,25.575,48.4
		s31.35-8.8,26.4-23.375s-22.55-9.625-25.438-0.963c-1.397,4.192-2.681,6.6-4.519,7.603c2.044-3.409,2.182-4.509,2.938-8.978
		c0.756-4.469,4.813-11.894,15.95-12.925c11.137-1.031,21.038,5.019,22.688,16.569c1.65,11.55,4.813,20.075,9.281,20.075
		c4.469,0,7.631-8.525,9.281-20.075c1.65-11.55,11.55-17.6,22.688-16.569c11.138,1.031,15.194,8.456,15.95,12.925
		c0.756,4.469,0.894,5.569,2.938,8.978c-1.838-1.003-3.122-3.411-4.519-7.603c-2.888-8.662-20.488-13.612-25.438,0.963
		c-4.95,14.575,4.675,26.125,26.4,23.375c21.725-2.75,40.15-28.05,25.575-48.4C559.78,533.147,526.78,522.697,501.48,522.697z
		 M562.53,586.635c4.606-5.638,5.909-12.306,5.5-17.669c-0.55-7.219-10.45-26.331-43.587-29.906
		c11.137,5.088,12.375,8.388,11.962,11.963c-0.412,3.575-8.662,3.713-15.263,1.787c-6.6-1.925-13.75-2.063-14.437-1.1
		s-3.163,21.725-5.225,23.787c-2.063-2.063-4.538-22.825-5.225-23.787s-7.837-0.825-14.438,1.1c-6.6,1.925-14.85,1.788-15.262-1.787
		s0.825-6.875,11.962-11.963c-33.138,3.575-43.038,22.688-43.587,29.906c-0.409,5.363,0.894,12.031,5.5,17.669
		c-6.875-3.987-11.481-10.45-10.587-18.219c0.894-7.769,5.454-15.286,19.021-24.452c13.567-9.167,36.117-14.3,52.617-14.3
		s39.05,5.133,52.617,14.3c13.567,9.167,18.127,16.683,19.021,24.452C574.011,576.185,569.405,582.647,562.53,586.635z"/>
	<path style="fill:#282828;" d="M501.48,536.356c-2.892,0.018-5.679,0.421-8.416,1.023c-2.729,0.632-5.418,1.428-7.992,2.644
		c2.838,0.141,5.596,0.034,8.334-0.071c2.732-0.115,5.445-0.276,8.074-0.296c2.629,0.016,5.342,0.177,8.074,0.291
		c2.739,0.104,5.497,0.214,8.334,0.076c-2.575-1.212-5.264-2.006-7.993-2.639C507.159,536.782,504.372,536.378,501.48,536.356z"/>
	<path style="fill:#282828;" d="M368.243,761.122c7.563,6.738,18.012,12.1,35.337,10.038c-17.462-1.925-31.35-9.9-39.05-21.313
		c13.2,9.9,27.087,19.25,49.912,16.225c-25.162-6.188-44.38-11.335-54.831-36.025c13.168,15.537,26.506,26.95,46.306,28.188
		c-26.262-11.413-36.099-21.588-46.306-40.975c9.456,11.688,20.043,19.938,26.643,22c-21.45-18.425-23.787-29.7-28.188-44.55
		c7.975,14.162,22.138,30.525,48.125,35.475c-20.212-10.862-34.467-23.742-40.654-38.729c5.958,7.15,16.317,11.55,16.317,11.55
		s-15.125-11.917-21.267-27.867c5.5,7.975,11.688,13.383,17.279,16.958c-9.167-11.275-16.758-23.1-18.256-37.492
		c5.57,13.503,12.362,32.842,37.465,42.752c0.506-0.648,1.024-1.286,1.55-1.919c-13.643-8.908-24.381-17.782-28.413-33.598
		c5.133,7.156,10.633,11.923,14.758,13.573c-7.333-7.517-15.308-23.008-15.308-23.375c0-0.367,5.958,7.7,13.933,11.092
		c-10.817-11.367-20.533-26.583-18.058-40.15c2.227,10.808,7.661,29.927,36.189,41.93c-0.291,1.833-0.517,3.676-0.686,5.516
		c-0.638,7.194-0.43,14.462,0.572,21.624c0.493-0.53,0.983-1.062,1.489-1.579c0.8-0.811,1.62-1.605,2.454-2.384
		c-0.687-5.802-1.086-11.645-1.099-17.506c0.003-1.514,0.032-3.028,0.081-4.543c2.376,0.912,4.883,1.783,7.566,2.592
		c-2.434-1.33-4.957-2.753-7.499-4.288c0.224-4.92,0.733-9.843,1.724-14.778c-2.03,4.163-3.359,8.646-4.229,13.225
		c-13.11-8.307-26.077-19.828-29.138-37.609c6.05,9.35,12.467,16.042,12.467,16.042s-6.6-11.183-8.617-20.625
		c4.4,7.058,9.442,10.633,9.442,10.633s-10.083-17.967-9.717-33.092c2.292,9.808,8.342,36.025,37.95,46.2
		c-13.017-9.167-36.025-32.963-29.242-63.158c0.596,7.173,4.377,23.742,11.527,29.448c-4.881-10.381-10.794-30.181-4.331-46.131
		c-0.962,9.9,1.65,22.963,6.394,28.6c-2.544-8.319-4.194-24.338,3.988-34.237c-2.131,6.119-2.544,17.6,0.894,22.275
		c0-11.55,5.133-30.983,50.279-55.504c-19.617,7.15-34.1,13.383-48.217,25.85c0.962-7.746,11.688-18.883,16.362-22.871
		c-18.563,9.487-23.1,12.787-34.925,28.6c-11.825,15.813-7.7,15.95-12.925,26.4c-5.225,10.45-16.637,28.737-23.512,56.237
		s-14.713,58.85-16.638,63.662c5.913-1.1,13.612-9.763,15.125-12.513c-0.275,9.075-3.025,21.313-6.462,27.913
		c-3.438,6.6-7.837,14.025-7.837,18.563c5.775-6.875,10.17-8.494,12.1-2.063c3.713,12.375,0.775,48.881,39.738,54.725
		c19.25,2.888,43.45-11.962,61.462-28.325C430.943,771.435,381.993,790.135,368.243,761.122z"/>
	<path style="fill:#282828;" d="M397.071,706.226c1.98-2.141,3.969-4.261,5.974-6.362c1.022,4.491,2.392,8.905,4.18,13.162
		c2.798,6.667,6.633,13.073,11.939,17.938c-3.874-6.029-6.597-12.482-8.716-19.12c-1.636-5.146-2.824-10.421-3.74-15.742
		c2.451-2.465,4.939-4.885,7.499-7.238c3.014-2.73,6.112-5.354,9.449-7.859c-3.981,1.297-7.654,3.435-11.056,5.86
		c-2.293,1.623-4.454,3.417-6.518,5.312c-0.001-0.005-0.001-0.009-0.002-0.014c-0.057,0.058-0.116,0.114-0.173,0.172
		c-0.954,0.881-1.893,1.777-2.803,2.7c-2.919,2.982-5.613,6.176-8.034,9.57c-2.417,3.38-4.664,6.95-6.156,10.868
		C391.579,712.273,394.321,709.253,397.071,706.226z"/>
	<path style="fill:#282828;" d="M420.423,736.172c2.263,0.909,4.598,1.619,6.971,2.129c2.372,0.515,4.783,0.832,7.208,0.972
		c2.418,0.13,4.882,0.111,7.295-0.426c-2.375-0.608-4.676-1.177-6.997-1.699c-2.315-0.527-4.618-1.048-6.926-1.534l-13.944-3
		C415.962,734.144,418.166,735.261,420.423,736.172z"/>
	<path style="fill:#282828;" d="M435.81,709.392l-6.319-1.492l-6.443-1.503c1.705,1.513,3.703,2.617,5.751,3.544
		c2.06,0.909,4.201,1.612,6.379,2.127c2.179,0.513,4.397,0.849,6.633,0.991c2.231,0.117,4.509,0.113,6.732-0.427
		c-2.181-0.612-4.284-1.171-6.404-1.71L435.81,709.392z"/>
	<path style="fill:#282828;" d="M428.213,679.002c1.912,1.296,3.967,2.367,6.098,3.242c2.131,0.875,4.344,1.554,6.614,1.986
		c2.261,0.395,4.63,0.676,6.93,0.168c-2.217-0.645-4.266-1.458-6.344-2.249c-2.069-0.795-4.116-1.615-6.156-2.448
		c-2.041-0.834-4.074-1.686-6.101-2.585c-2.04-0.881-4.056-1.818-6.206-2.709C424.511,676.216,426.31,677.697,428.213,679.002z"/>
	<path style="fill:#282828;" d="M434.413,651.379c0.631-1.212-0.596-3.1-2.74-4.216c-2.144-1.116-4.394-1.038-5.025,0.174
		c-0.631,1.212,0.596,3.1,2.74,4.216C431.532,652.669,433.782,652.591,434.413,651.379z"/>
	<path style="fill:#282828;" d="M458.67,687.443c-0.209,0.974,0.873,2.032,2.416,2.363c1.543,0.331,2.963-0.191,3.172-1.166
		c0.209-0.974-0.873-2.032-2.416-2.363C460.298,685.947,458.878,686.469,458.67,687.443z"/>
	<path style="fill:#282828;" d="M599.243,581.135c3.438-4.675,3.025-16.156,0.894-22.275c8.181,9.9,6.531,25.919,3.988,34.237
		c4.744-5.638,7.356-18.7,6.394-28.6c6.463,15.95,0.55,35.75-4.331,46.131c7.15-5.706,10.931-22.275,11.527-29.448
		c6.783,30.195-16.225,53.992-29.242,63.158c29.608-10.175,35.658-36.392,37.95-46.2c0.367,15.125-9.717,33.092-9.717,33.092
		s5.042-3.575,9.442-10.633c-2.017,9.442-8.617,20.625-8.617,20.625s6.417-6.692,12.467-16.042
		c-3.85,22.367-23.375,34.833-39.142,43.45c37.675-11.367,44.092-33.642,46.567-45.65c2.475,13.567-7.242,28.783-18.058,40.15
		c7.975-3.392,13.933-11.458,13.933-11.092c0,0.367-7.975,15.858-15.308,23.375c4.125-1.65,9.625-6.417,14.758-13.573
		c-4.767,18.694-18.883,27.689-36.117,38.506c32.817-8.433,40.517-30.708,46.718-45.742c-1.498,14.392-9.089,26.217-18.256,37.492
		c5.592-3.575,11.779-8.983,17.279-16.958c-6.142,15.95-21.267,27.867-21.267,27.867s10.358-4.4,16.317-11.55
		c-6.188,14.987-20.442,27.867-40.654,38.729c25.988-4.95,40.15-21.313,48.125-35.475c-4.4,14.85-6.737,26.125-28.188,44.55
		c6.6-2.063,17.188-10.313,26.643-22c-10.207,19.388-20.043,29.563-46.306,40.975c19.8-1.238,33.138-12.65,46.306-28.188
		c-10.451,24.69-29.668,29.837-54.831,36.025c22.825,3.025,36.713-6.325,49.913-16.225c-7.7,11.412-21.588,19.388-39.05,21.313
		c17.325,2.063,27.775-3.3,35.337-10.038c-13.75,29.013-62.7,10.313-80.025,0.688c18.012,16.363,42.212,31.213,61.462,28.325
		c38.962-5.844,36.025-42.35,39.737-54.725c1.93-6.432,6.325-4.813,12.1,2.063c0-4.538-4.4-11.963-7.838-18.563
		c-3.438-6.6-6.188-18.838-6.462-27.913c1.512,2.75,9.212,11.413,15.125,12.513c-1.925-4.813-9.763-36.162-16.638-63.662
		s-18.288-45.788-23.513-56.237c-5.225-10.45-1.1-10.588-12.925-26.4s-16.362-19.112-34.925-28.6
		c4.675,3.987,15.4,15.125,16.362,22.871c-14.117-12.467-28.6-18.7-48.217-25.85C594.109,550.151,599.243,569.585,599.243,581.135z"
		/>
	<path style="fill:#282828;" d="M574.986,735.614c-2.308,0.486-4.611,1.007-6.926,1.534c-2.32,0.522-4.621,1.091-6.997,1.699
		c2.412,0.537,4.876,0.556,7.294,0.426c2.424-0.14,4.835-0.457,7.208-0.972c2.373-0.51,4.708-1.22,6.971-2.129
		c2.257-0.911,4.462-2.029,6.393-3.558L574.986,735.614z"/>
	<path style="fill:#282828;" d="M567.783,712.068c2.178-0.515,4.319-1.217,6.379-2.127c2.048-0.927,4.046-2.031,5.751-3.544
		l-6.443,1.503l-6.319,1.492l-6.329,1.529c-2.12,0.539-4.222,1.098-6.404,1.71c2.223,0.54,4.501,0.544,6.732,0.427
		C563.386,712.917,565.604,712.581,567.783,712.068z"/>
	<path style="fill:#282828;" d="M567.606,679.7c-2.041,0.833-4.088,1.654-6.156,2.448c-2.078,0.791-4.127,1.604-6.344,2.249
		c2.3,0.508,4.67,0.228,6.93-0.168c2.27-0.433,4.483-1.111,6.615-1.986c2.131-0.875,4.185-1.945,6.098-3.242
		c1.902-1.305,3.702-2.786,5.165-4.596c-2.149,0.891-4.165,1.828-6.206,2.709C571.68,678.014,569.646,678.866,567.606,679.7z"/>
	<path style="fill:#282828;" d="M541.119,686.278c-1.543,0.331-2.625,1.388-2.416,2.363c0.209,0.974,1.629,1.496,3.172,1.166
		s2.625-1.388,2.416-2.363C544.082,686.469,542.662,685.947,541.119,686.278z"/>
	<path style="fill:#282828;" d="M592.232,391.797l-12.925,13.567c0,0-0.183-7.242,4.125-14.758c0,0-7.792,5.317-9.808,12.375
		c0.275-5.408,1.008-10.358,5.317-18.25c0,0-7.425,5.784-10.542,13.044c1.467-11.623,9.35-22.477,9.35-22.477
		s-7.242,4.858-11.367,12.833c3.575-13.75,12.925-24.475,12.925-24.475s-9.167,6.142-14.3,15.492
		c2.933-10.817,14.483-27.317,14.483-27.317s-14.667,15.583-17.783,22.733c-3.117,7.15-5.133,26.583,3.667,35.017
		c8.8,8.433,24.933,10.083,34.833,5.683c9.9-4.4,18.15-18.333,23.467-25.85c5.317-7.517,11.733-15.767,26.4-22
		c-19.617,2.108-33.642,18.792-36.3,22.367c-2.658,3.575-13.292,18.608-23.283,21.036c8.892-5.548,25.483-31.394,25.483-31.394
		s-20.442,19.067-30.617,27.775C587.007,405.272,592.232,391.797,592.232,391.797z"/>
	<path style="fill:#282828;" d="M510.832,466.047c0,0,11.825,6.325,20.9,6.738c9.075,0.412,16.5,3.712,26.537,11.688
		c10.038,7.975,15.95,8.938,30.25,16.225c14.3,7.288,20.35,14.713,20.35,14.713s-7.838-3.025-17.875-8.663
		c2.337,2.887,11.688,11,20.763,16.5c9.075,5.5,14.437,9.488,21.312,16.775c-5.637-13.612-11.55-14.025-14.025-19.112
		c-2.475-5.088-11.825-16.5-19.112-21.725c-7.288-5.225-34.375-18.013-39.325-22c-4.95-3.988-12.1-8.663-15.95-10.725
		c-3.85-2.063-14.575-8.25-24.888-9.35c7.975,2.888,13.475,8.525,13.063,10.587C532.419,469.76,525.682,469.072,510.832,466.047z"/>
	<path style="fill:#282828;" d="M687.038,525.997c-18.631-1.856-37.537-19.869-37.537-19.869s15.675,18.837,25.369,25.369
		c-13.063-3.712-34.375-24.062-34.375-24.062s12.65,18.562,23.65,27.5c-8.662-0.55-30.8-27.362-38.912-30.8
		c18.7,16.775,27.912,42.075,38.362,42.213s36.438-11.963,47.163-26.675c10.725-14.713,13.75-36.713,16.775-49.225
		c3.025-12.512,8.525-13.337,12.375-12.512c3.85,0.825,5.5-1.513,6.463-3.712c0.962-2.2,1.925-5.363,0-10.45
		c-1.925-5.087-6.325-17.05-6.463-23.764c-0.688,7.174-0.963,12.764,0.138,19.02c1.1,6.256-0.138,7.631-2.75,10.863
		c1.237-6.462-3.016-15.744-3.016-15.744s0.678,10.725-1.659,17.6c0.275-4.263-1.856-12.444-5.569-14.712
		c3.438,5.844,2.819,15.469-0.206,21.794c-0.069-3.438-2.406-10.45-6.669-14.094c3.094,4.606,3.55,18.694,2.131,25.438
		c-0.069-2.475-3.781-12.925-9.556-18.425c2.819,5.019,7.906,20.969,5.294,28.6c-0.412-3.438-5.638-12.581-12.1-17.325
		c5.225,5.569,8.456,17.944,7.563,29.425c-0.481-4.744-7.838-16.775-15.469-21.106c5.638,5.363,11.413,21.794,11.825,32.45
		c-1.1-4.606-10.725-18.219-18.7-21.862c6.119,5.844,12.65,18.7,13.475,27.637c-1.238-3.644-11.963-17.05-21.313-19.869
		c5.569,3.231,14.781,14.094,16.156,23.031c-6.463-9.075-21.106-18.288-21.106-18.288s13.269,13.475,15.675,21.244
		c-3.369-4.331-16.5-10.862-25.162-16.087c0,0,15.606,14.506,21.725,19.594c-11.138-0.138-23.1-9.35-31.487-15.813
		C665.519,511.697,675.144,521.185,687.038,525.997z"/>
</g>
</svg>
